<?xml version="1.0" standalone="no"?><svg xmlns="http://www.w3.org/2000/svg" viewBox="0 0 1440 320"><path fill="#010F23" fill-opacity="1" d="M0,64L30,80C60,96,120,128,180,133.3C240,139,300,117,360,122.7C420,128,480,160,540,181.3C600,203,660,213,720,202.7C780,192,840,160,900,144C960,128,1020,128,1080,149.3C1140,171,1200,213,1260,224C1320,235,1380,213,1410,202.7L1440,192L1440,320L1410,320C1380,320,1320,320,1260,320C1200,320,1140,320,1080,320C1020,320,960,320,900,320C840,320,780,320,720,320C660,320,600,320,540,320C480,320,420,320,360,320C300,320,240,320,180,320C120,320,60,320,30,320L0,320Z"></path></svg>